<svg id="Layer_1" data-name="Layer 1" xmlns="http://www.w3.org/2000/svg" viewBox="0 0 500.01 95.43"><defs><style></style></defs><title>clouds-top</title><circle cx="380.12" cy="35.58" r="13.88"/><circle cx="363.75" cy="44.12" r="13.88"/><rect x="0.01" width="500" height="36" transform="translate(500.01 36) rotate(180)"/><circle cx="348.09" cy="38.42" r="13.88"/><circle cx="338.12" cy="29.88" r="13.88"/><circle cx="97.43" cy="27.68" r="23.58"/><circle cx="74.61" cy="49.2" r="23.58"/><circle cx="46.38" cy="47.12" r="23.58"/><ellipse cx="23.87" cy="36.76" rx="23.86" ry="23.58"/><circle cx="168.65" cy="37.32" r="34.12"/><circle cx="213.83" cy="61.3" r="34.12"/><circle cx="253.75" cy="37.6" r="34.12"/><circle cx="423.13" cy="34.26" r="13.74"/><circle cx="440.52" cy="43.87" r="13.74"/><circle cx="456.52" cy="47.87" r="13.74"/><circle cx="471.52" cy="42.87" r="13.74"/><circle cx="485.52" cy="33.87" r="13.74"/><circle cx="399.45" cy="37.4" r="11.6"/><circle cx="302.83" cy="37.98" r="23.58"/><circle cx="134.52" cy="39.87" r="23.58"/></svg>