<svg xmlns="http://www.w3.org/2000/svg" xmlns:xlink="http://www.w3.org/1999/xlink" x="0px" y="0px" width="64px" height="64px" viewBox="0 0 64 64" stroke-width="2"><g stroke-width="2" transform="translate(0.5, 0.5)"><path data-cap="butt" fill="none" stroke="#000000" stroke-width="2" stroke-miterlimit="10" d="M60.627,23.002 C61.519,25.842,62,28.865,62,32c0,16.569-13.431,30-30,30S2,48.569,2,32S15.431,2,32,2c6.63,0,12.76,2.148,17.725,5.79" stroke-linejoin="miter" stroke-linecap="butt"></path> <circle fill="none" stroke="#000000" stroke-width="2" stroke-linecap="square" stroke-miterlimit="10" cx="54" cy="12" r="6" stroke-linejoin="miter"></circle> <path data-color="color-2" fill="none" stroke="#000000" stroke-width="2" stroke-linecap="square" stroke-miterlimit="10" d="M44,45 v-3.965c0-1.42-0.745-2.726-1.967-3.449C40.088,36.435,36.716,35,32,35c-4.777,0-8.127,1.426-10.052,2.575 C20.736,38.299,20,39.601,20,41.013V45H44z" stroke-linejoin="miter"></path> <circle data-color="color-2" fill="none" stroke="#000000" stroke-width="2" stroke-linecap="square" stroke-miterlimit="10" cx="32" cy="23" r="6" stroke-linejoin="miter"></circle></g></svg>