<svg xmlns="http://www.w3.org/2000/svg" width="40" height="40" viewBox="0 0 40 40"><defs><style>.a,.b{fill:#5777f3;}.a{opacity:0.15;}</style></defs><g transform="translate(19.634 10.212)"><rect class="a" width="40" height="40" rx="20" transform="translate(20.366 -10.212) rotate(90)"/><g transform="translate(-9.634 -0.212)"><path class="b" d="M37.529,33.3a4.329,4.329,0,1,0,4.329,4.3A4.338,4.338,0,0,0,37.529,33.3Zm0,6.983a2.68,2.68,0,1,1,2.68-2.68A2.678,2.678,0,0,1,37.529,40.283Z" transform="translate(-27.609 -27.657)"/><path class="b" d="M31.159,19.929l-1.7-.979a7.435,7.435,0,0,0-.67-1.623l.515-1.881a.366.366,0,0,0-.1-.361l-1.52-1.52a.383.383,0,0,0-.361-.1l-1.881.515a7.435,7.435,0,0,0-1.623-.67l-.979-1.7A.4.4,0,0,0,22.5,11.4H20.364a.4.4,0,0,0-.335.206l-.979,1.7a7.435,7.435,0,0,0-1.623.67l-1.881-.515a.366.366,0,0,0-.361.1l-1.52,1.52a.383.383,0,0,0-.1.361l.515,1.881a7.435,7.435,0,0,0-.67,1.623l-1.7.979a.4.4,0,0,0-.206.335V22.4a.4.4,0,0,0,.206.335l1.7.979a7.435,7.435,0,0,0,.67,1.623l-.515,1.881a.366.366,0,0,0,.1.361l1.52,1.52a.383.383,0,0,0,.361.1l1.881-.515a7.435,7.435,0,0,0,1.623.67l.979,1.7a.4.4,0,0,0,.335.206H22.5a.4.4,0,0,0,.335-.206l.979-1.7a7.435,7.435,0,0,0,1.623-.67l1.881.515a.366.366,0,0,0,.361-.1l1.52-1.52a.383.383,0,0,0,.1-.361l-.515-1.881a7.434,7.434,0,0,0,.67-1.623l1.7-.979a.4.4,0,0,0,.206-.335V20.264A.573.573,0,0,0,31.159,19.929Zm-9.74,6.519a5.1,5.1,0,1,1,5.1-5.1A5.113,5.113,0,0,1,21.42,26.447Z" transform="translate(-11.5 -11.4)"/></g></g></svg>