<?xml version="1.0" encoding="UTF-8" standalone="no"?>
<!DOCTYPE svg PUBLIC "-//W3C//DTD SVG 1.1//EN" "http://www.w3.org/Graphics/SVG/1.1/DTD/svg11.dtd">
<svg width="100%" height="100%" viewBox="0 0 300 235" version="1.1" xmlns="http://www.w3.org/2000/svg" xmlns:xlink="http://www.w3.org/1999/xlink" xml:space="preserve" xmlns:serif="http://www.serif.com/" style="fill:#5777f3">
    <g>
    <path d="M300,0c0,0 -211.047,56.55 -279.113,74.788c-12.32,3.301 -20.887,14.466 -20.887,27.221l0,38.719c0,0 169.388,-45.387 253.602,-67.952c27.368,-7.333 46.398,-32.134 46.398,-60.467c0,-7.221 0,-12.309 0,-12.309Z"/>
    <path d="M184.856,124.521c0,-0 -115.6,30.975 -163.969,43.935c-12.32,3.302 -20.887,14.466 -20.887,27.221l0,38.719c0,0 83.701,-22.427 138.458,-37.099c27.368,-7.334 46.398,-32.134 46.398,-60.467c0,-7.221 0,-12.309 0,-12.309Z"/>
    </g>
</svg>