<?xml version="1.0" encoding="UTF-8" standalone="no"?><!-- Generator: Gravit.io --><svg xmlns="http://www.w3.org/2000/svg" xmlns:xlink="http://www.w3.org/1999/xlink" style="isolation:isolate" viewBox="0 0 200 200" width="200pt" height="200pt"><ellipse vector-effect="non-scaling-stroke" cx="99.99999999999999" cy="100.00000000000001" rx="98.75512820512819" ry="97.75253807106597" fill="rgb(46,93,159)"/><path d=" M 39.152 69.618 L 39.152 69.618 L 84.96 69.618 L 84.96 69.618 Q 87.597 69.618 88.833 70.236 L 88.833 70.236 L 88.833 70.236 Q 90.069 70.854 90.481 72.172 L 90.481 72.172 L 90.481 72.172 Q 90.892 73.49 90.892 75.632 L 90.892 75.632 L 90.892 75.632 Q 90.892 77.774 90.481 79.051 L 90.481 79.051 L 90.481 79.051 Q 90.069 80.328 89.08 80.823 L 89.08 80.823 L 89.08 80.823 Q 87.597 81.564 84.878 81.564 L 84.878 81.564 L 69.142 81.564 L 69.142 123.006 L 69.142 123.006 Q 69.142 124.901 69.018 125.807 L 69.018 125.807 L 69.018 125.807 Q 68.895 126.713 68.277 127.908 L 68.277 127.908 L 68.277 127.908 Q 67.659 129.102 66.093 129.597 L 66.093 129.597 L 66.093 129.597 Q 64.528 130.091 61.974 130.091 L 61.974 130.091 L 61.974 130.091 Q 59.42 130.091 57.896 129.597 L 57.896 129.597 L 57.896 129.597 Q 56.371 129.102 55.754 127.908 L 55.754 127.908 L 55.754 127.908 Q 55.136 126.713 55.012 125.766 L 55.012 125.766 L 55.012 125.766 Q 54.888 124.818 54.888 122.923 L 54.888 122.923 L 54.888 81.564 L 39.07 81.564 L 39.07 81.564 Q 36.433 81.564 35.198 80.946 L 35.198 80.946 L 35.198 80.946 Q 33.962 80.328 33.55 79.01 L 33.55 79.01 L 33.55 79.01 Q 33.138 77.692 33.138 75.55 L 33.138 75.55 L 33.138 75.55 Q 33.138 73.408 33.55 72.131 L 33.55 72.131 L 33.55 72.131 Q 33.962 70.854 34.95 70.359 L 34.95 70.359 L 34.95 70.359 Q 36.433 69.618 39.152 69.618 Z  M 159.605 72.007 L 159.605 72.007 L 159.605 72.007 Q 160.264 73.243 160.388 74.231 L 160.388 74.231 L 160.388 74.231 Q 160.511 75.22 160.511 77.115 L 160.511 77.115 L 160.511 122.841 L 160.511 122.841 Q 160.511 128.526 157.38 129.514 L 157.38 129.514 L 157.38 129.514 Q 155.815 130.009 153.426 130.009 L 153.426 130.009 L 153.426 130.009 Q 151.036 130.009 149.636 129.597 L 149.636 129.597 L 149.636 129.597 Q 148.235 129.185 147.494 128.608 L 147.494 128.608 L 147.494 128.608 Q 146.752 128.031 146.34 126.96 L 146.34 126.96 L 146.34 126.96 Q 145.928 125.56 145.928 122.676 L 145.928 122.676 L 145.928 95.076 L 145.928 95.076 Q 143.869 97.63 139.914 103.191 L 139.914 103.191 L 139.914 103.191 Q 135.959 108.752 134.888 110.153 L 134.888 110.153 L 134.888 110.153 Q 133.817 111.554 133.405 112.089 L 133.405 112.089 L 133.405 112.089 Q 132.993 112.625 131.387 113.572 L 131.387 113.572 L 131.387 113.572 Q 129.78 114.52 127.926 114.52 L 127.926 114.52 L 127.926 114.52 Q 126.073 114.52 124.548 113.655 L 124.548 113.655 L 124.548 113.655 Q 123.024 112.789 122.365 111.966 L 122.365 111.966 L 121.706 111.059 L 121.706 111.059 Q 120.058 109 115.197 102.285 L 115.197 102.285 L 115.197 102.285 Q 110.336 95.57 109.924 95.076 L 109.924 95.076 L 109.924 122.841 L 109.924 122.841 Q 109.924 124.736 109.801 125.683 L 109.801 125.683 L 109.801 125.683 Q 109.677 126.631 109.018 127.784 L 109.018 127.784 L 109.018 127.784 Q 107.782 130.009 102.592 130.009 L 102.592 130.009 L 102.592 130.009 Q 97.566 130.009 96.33 127.784 L 96.33 127.784 L 96.33 127.784 Q 95.671 126.631 95.547 125.642 L 95.547 125.642 L 95.547 125.642 Q 95.424 124.653 95.424 122.676 L 95.424 122.676 L 95.424 76.95 L 95.424 76.95 Q 95.424 75.055 95.547 74.108 L 95.547 74.108 L 95.547 74.108 Q 95.671 73.16 96.33 71.925 L 96.33 71.925 L 96.33 71.925 Q 97.566 69.782 102.756 69.782 L 102.756 69.782 L 102.756 69.782 Q 104.981 69.782 106.588 70.318 L 106.588 70.318 L 106.588 70.318 Q 108.194 70.854 108.688 71.43 L 108.688 71.43 L 109.183 71.925 L 127.885 96.476 L 127.885 96.476 Q 141.891 77.939 146.587 72.007 L 146.587 72.007 L 146.587 72.007 Q 147.988 69.782 153.22 69.782 L 153.22 69.782 L 153.22 69.782 Q 158.451 69.782 159.605 72.007 Z " fill="rgb(255,255,255)"/></svg>