<svg id="Layer_1" data-name="Layer 1" xmlns="http://www.w3.org/2000/svg" viewBox="0 0 256 32"><defs><style>.cls-1{fill:#fff;}</style></defs><path class="cls-1" d="M49.29,4.38h9.29c4.47,0,7.78,2.88,7.78,7s-3.31,7-7.78,7H53.71V25H49.29Zm8.8,9.89c2.2,0,3.7-1.15,3.7-2.92s-1.5-2.92-3.7-2.92H53.71v5.84Z"/><path class="cls-1" d="M82.78,15.74V25H78.54V23.46A6.16,6.16,0,0,1,74,25.39c-3.31,0-5.86-2-5.86-5s2.85-5.17,6.46-5.17a11.24,11.24,0,0,1,4,.78v-.3c0-1.66-1-3.1-3.58-3.1a8.94,8.94,0,0,0-4,1.11l-1.47-2.91A14.32,14.32,0,0,1,76,9.12C80,9.12,82.78,11.68,82.78,15.74Zm-4.24,4.39V18.68a9.87,9.87,0,0,0-3.34-.57c-1.59,0-2.85.93-2.85,2.2s1.11,2,2.61,2C76.65,22.35,78.24,21.57,78.54,20.13Z"/><path class="cls-1" d="M86.12,29.48l.93-3a4.8,4.8,0,0,0,2,.69,2,2,0,0,0,1.84-.84l.54-1.14L85,9.49h4.53L93.63,20.4,97.51,9.49H102L95.62,25.81c-1.18,3-3.16,4.63-5.59,4.63A8.92,8.92,0,0,1,86.12,29.48Z"/><path class="cls-1" d="M111.55,9.49h4.3l3,9.67,3.06-9.67h3.64l3.07,9.67,2.94-9.67h4.3L130.52,25h-3.94l-2.88-9.77L120.78,25h-3.94Z"/><path class="cls-1" d="M138,5a2.38,2.38,0,1,1,2.41,2.4A2.4,2.4,0,0,1,138,5Zm.18,4.54h4.39V25h-4.39Z"/><path class="cls-1" d="M155.63,24a5.63,5.63,0,0,1-3.58,1.36,4.51,4.51,0,0,1-4.66-4.75V13h-2.13V9.49h2.13V5.22h4.21V9.49H155V13H151.6V20a1.59,1.59,0,0,0,1.47,1.74,2.28,2.28,0,0,0,1.51-.51Z"/><path class="cls-1" d="M173.13,15.14V25h-4.24v-9a3,3,0,0,0-2.95-3.25,3.1,3.1,0,0,0-3.25,3V25H158.3V4h4.39v7.37a5.83,5.83,0,0,1,10.44,3.76Z"/><path class="cls-1" d="M184.52,14.69a11,11,0,0,1,19-7.22l-3.22,2.89A6.4,6.4,0,0,0,195.5,8a6.66,6.66,0,0,0,0,13.32A6.4,6.4,0,0,0,200.3,19l3.22,2.89a11.18,11.18,0,0,1-8,3.46A11,11,0,0,1,184.52,14.69Z"/><path class="cls-1" d="M219.91,15.74V25h-4.24V23.46a6.16,6.16,0,0,1-4.57,1.93c-3.31,0-5.86-2-5.86-5s2.85-5.17,6.46-5.17a11.24,11.24,0,0,1,4,.78v-.3c0-1.66-1-3.1-3.58-3.1a8.94,8.94,0,0,0-4,1.11l-1.47-2.91a14.32,14.32,0,0,1,6.49-1.72C217.14,9.12,219.91,11.68,219.91,15.74Zm-4.24,4.39V18.68a9.83,9.83,0,0,0-3.34-.57c-1.59,0-2.85.93-2.85,2.2s1.11,2,2.61,2C213.78,22.35,215.37,21.57,215.67,20.13Z"/><path class="cls-1" d="M233.32,9.12v3.7c-3.25,0-5.32,1.87-5.32,4.78V25h-4.39V9.49H228v2.88A5.8,5.8,0,0,1,233.32,9.12Z"/><path class="cls-1" d="M251.84,4V25h-4.39V22.8a6.37,6.37,0,0,1-5.23,2.59c-4.15,0-7.16-3.37-7.16-8.15s3-8.12,7.16-8.12a6.4,6.4,0,0,1,5.23,2.59V4Zm-4.39,13.23c0-2.58-1.65-4.42-4-4.42a4.13,4.13,0,0,0-4.15,4.42,4.13,4.13,0,0,0,4.15,4.45C245.8,21.69,247.45,19.86,247.45,17.24Z"/><path class="cls-1" d="M21.43,3.51H36A3.23,3.23,0,0,1,38.8,4.88a3.19,3.19,0,0,1,.59,1.92V23A3.19,3.19,0,0,1,37,26.14a3.73,3.73,0,0,1-1,.12H6.85a3.21,3.21,0,0,1-3.36-3.38v-16a3.21,3.21,0,0,1,3.4-3.38ZM4.77,10.41v12.5A1.94,1.94,0,0,0,6.86,25H36a1.94,1.94,0,0,0,2.09-2.07V10.77a.52.52,0,0,0-.06-.36ZM38.11,9.1c0-.85,0-1.65,0-2.45A1.9,1.9,0,0,0,36.29,4.8H6.73a1.93,1.93,0,0,0-2,2c0,.7,0,1.39,0,2.08,0,.09,0,.19.06.27Z"/><path class="cls-1" d="M29.91,17H24.43a1.93,1.93,0,0,1-2.08-2c0-.42,0-.83,0-1.24a1.93,1.93,0,0,1,2.06-2h11a1.93,1.93,0,0,1,2,2.06V15a1.92,1.92,0,0,1-2,1.95C33.65,17,31.78,17,29.91,17Zm0-1.28h5.49c.53,0,.76-.23.76-.75s0-.83,0-1.25-.24-.72-.75-.73h-11a.66.66,0,0,0-.74.74c0,.39,0,.77,0,1.16,0,.63.21.83.85.83Z"/><path class="cls-1" d="M8.43,23.47H6.87a.65.65,0,1,1,0-1.28c1.07,0,2.14,0,3.2,0a.65.65,0,0,1,.71.65.64.64,0,0,1-.7.62Z"/><path class="cls-1" d="M19.72,23.47H18.23c-.5,0-.79-.25-.79-.65s.31-.63.77-.63q1.54,0,3.09,0h.23a.67.67,0,0,1,.54.66.63.63,0,0,1-.63.6c-.58,0-1.15,0-1.72,0Z"/><path class="cls-1" d="M14.11,23.47H12.55c-.48,0-.75-.25-.74-.65s.26-.63.72-.63c1.05,0,2.1,0,3.16,0a.63.63,0,0,1,.72.63c0,.4-.27.64-.74.65Z"/></svg>