<svg width="24" height="29" viewBox="0 0 24 29" fill="none" xmlns="http://www.w3.org/2000/svg">
<path fill-rule="evenodd" clip-rule="evenodd" d="M7.34187 27.4338L7.81524 24.4149L6.76074 24.3902H1.72534L5.22477 2.11179C5.23567 2.04433 5.27091 1.9817 5.32238 1.93715C5.37411 1.8926 5.44003 1.86816 5.50899 1.86816H13.9995C16.8184 1.86816 18.7636 2.45699 19.779 3.61937C20.2552 4.16466 20.5584 4.73465 20.7052 5.36166C20.8591 6.01973 20.8616 6.80585 20.7115 7.76482L20.7006 7.83457V8.44911L21.1768 8.71998C21.5777 8.93356 21.8964 9.17795 22.1408 9.45773C22.548 9.9241 22.8114 10.5167 22.9227 11.2191C23.0378 11.9416 22.9998 12.8015 22.8114 13.775C22.5941 14.8946 22.243 15.8699 21.7686 16.6677C21.3325 17.4029 20.7767 18.0129 20.1167 18.4854C19.4867 18.9344 18.7382 19.2753 17.8919 19.4935C17.0717 19.7078 16.1366 19.816 15.111 19.816H14.4503C13.9779 19.816 13.519 19.9868 13.1587 20.2931C12.7974 20.6057 12.5586 21.0329 12.4853 21.5L12.4353 21.7719L11.5989 27.0932L11.5611 27.2885C11.551 27.3503 11.5337 27.3811 11.5084 27.402C11.4858 27.4211 11.4534 27.4338 11.4217 27.4338H7.34187Z" fill="#28356A"/>
<path fill-rule="evenodd" clip-rule="evenodd" d="M21.628 7.90552C21.6029 8.06819 21.5738 8.23442 21.5413 8.40524C20.4217 14.1774 16.5909 16.1715 11.6985 16.1715H9.20737C8.60901 16.1715 8.10471 16.6076 8.01165 17.2002L6.37502 27.6237C6.31442 28.0129 6.6131 28.3634 7.00407 28.3634H11.4223C11.9454 28.3634 12.3899 27.9818 12.4723 27.4638L12.5156 27.2385L13.3475 21.938L13.401 21.6473C13.4824 21.1275 13.9279 20.7456 14.4509 20.7456H15.1117C19.3923 20.7456 22.7434 19.0008 23.7228 13.9511C24.1318 11.8417 23.9201 10.0803 22.8374 8.84158C22.5099 8.46812 22.1034 8.15805 21.628 7.90552Z" fill="#298FC2"/>
<path fill-rule="evenodd" clip-rule="evenodd" d="M20.4562 7.4367C20.2851 7.38655 20.1086 7.34124 19.9276 7.30025C19.7456 7.26028 19.5592 7.2249 19.3673 7.19384C18.6956 7.08488 17.9596 7.0332 17.1713 7.0332H10.5165C10.3525 7.0332 10.1968 7.07037 10.0576 7.13758C9.75056 7.28574 9.52262 7.57748 9.46735 7.93464L8.05155 16.9378L8.01099 17.2003C8.10404 16.6077 8.60834 16.1716 9.2067 16.1716H11.6978C16.5902 16.1716 20.421 14.1765 21.5407 8.40535C21.5741 8.23453 21.6023 8.06829 21.6274 7.90562C21.3442 7.75466 21.0374 7.62559 20.707 7.51562C20.6254 7.48838 20.5412 7.46216 20.4562 7.4367Z" fill="#22284F"/>
<path fill-rule="evenodd" clip-rule="evenodd" d="M9.46773 7.93467C9.523 7.57751 9.75094 7.28577 10.058 7.13862C10.1982 7.07116 10.3529 7.034 10.5169 7.034H17.1717C17.96 7.034 18.696 7.08593 19.3676 7.19489C19.5596 7.22569 19.7459 7.26133 19.928 7.3013C20.109 7.34203 20.2855 7.3876 20.4566 7.43749C20.5416 7.46295 20.6257 7.48943 20.7081 7.51565C21.0385 7.62562 21.3456 7.75571 21.6288 7.90565C21.9619 5.77259 21.626 4.32026 20.4774 3.00514C19.211 1.55713 16.9255 0.9375 14.0009 0.9375H5.51014C4.91279 0.9375 4.40317 1.37358 4.31088 1.96724L0.774431 24.4747C0.704707 24.92 1.04674 25.3217 1.49399 25.3217H6.73578L9.46773 7.93467Z" fill="#28356A"/>
</svg>
