<svg width="54" height="24" viewBox="0 0 54 24" fill="none" xmlns="http://www.w3.org/2000/svg">
<path fill-rule="evenodd" clip-rule="evenodd" d="M29.1781 3.96234L25.4741 4.75727V1.75421L29.1781 0.973999V3.96234ZM36.881 5.62579C35.4348 5.62579 34.5051 6.30296 33.9886 6.77403L33.7968 5.86133H30.5502V23.0259L34.2395 22.2457L34.2542 18.0797C34.7855 18.4624 35.5676 19.0071 36.8662 19.0071C39.5077 19.0071 41.9131 16.8873 41.9131 12.2208C41.8984 7.9517 39.4634 5.62579 36.881 5.62579ZM35.9955 15.7685C35.1249 15.7685 34.6084 15.4593 34.2542 15.0766L34.2394 9.61515C34.6231 9.18825 35.1544 8.89383 35.9955 8.89383C37.3384 8.89383 38.2681 10.3954 38.2681 12.3238C38.2681 14.2964 37.3532 15.7685 35.9955 15.7685ZM53.5418 12.368C53.5418 8.59942 51.7119 5.62579 48.2145 5.62579C44.7023 5.62579 42.5773 8.59942 42.5773 12.3385C42.5773 16.7695 45.086 19.0071 48.6867 19.0071C50.4428 19.0071 51.7709 18.6096 52.7744 18.0502V15.1061C51.7709 15.6066 50.6199 15.9157 49.1589 15.9157C47.7275 15.9157 46.4584 15.4152 46.2961 13.6781H53.5122C53.5122 13.5971 53.5175 13.413 53.5236 13.2008L53.5237 13.2003C53.532 12.9118 53.5418 12.5715 53.5418 12.368ZM46.2517 10.9695C46.2517 9.30603 47.27 8.61415 48.1997 8.61415C49.0998 8.61415 50.059 9.30603 50.059 10.9695H46.2517ZM25.4738 5.87608H29.1779V18.7569H25.4738V5.87608ZM21.2684 5.87606L21.5045 6.96541C22.3752 5.37555 24.1018 5.69941 24.574 5.87606V9.26187C24.1165 9.09994 22.6408 8.89384 21.7702 10.0274V18.7569H18.0809V5.87606H21.2684ZM14.1258 2.6816L10.5251 3.44709L10.5103 15.2385C10.5103 17.4172 12.1484 19.0218 14.3324 19.0218C15.5425 19.0218 16.4279 18.801 16.9149 18.536V15.5477C16.4427 15.739 14.1111 16.4162 14.1111 14.2375V9.01159H16.9149V5.87604H14.1111L14.1258 2.6816ZM5.40462 8.82026C4.6225 8.82026 4.15027 9.04108 4.15027 9.61519C4.15027 10.242 4.96298 10.5178 5.97123 10.8599C7.61492 11.4176 9.77831 12.1516 9.78745 14.8706C9.78745 17.5056 7.6772 19.0219 4.60774 19.0219C3.33864 19.0219 1.95148 18.7716 0.579075 18.1828V14.6792C1.81866 15.3563 3.38291 15.8569 4.60774 15.8569C5.43413 15.8569 6.02442 15.636 6.02442 14.9589C6.02442 14.2645 5.14343 13.9472 4.07983 13.564C2.46005 12.9805 0.416748 12.2444 0.416748 9.79184C0.416748 7.18624 2.40895 5.62582 5.40462 5.62582C6.62945 5.62582 7.83953 5.81719 9.06436 6.30299V9.7624C7.94283 9.15884 6.52615 8.82026 5.40462 8.82026Z" fill="#6461FC"/>
</svg>
