<svg width="147" height="24" viewBox="0 0 147 24" fill="none" xmlns="http://www.w3.org/2000/svg">
<rect width="35.004" height="24" rx="4" fill="white"/>
<rect x="0.5" y="0.5" width="34.004" height="23" rx="3.5" stroke="#D6D7DC" stroke-opacity="0.2"/>
<path d="M14.9753 16.0828H12.9961L14.234 8.4292H16.2131L14.9753 16.0828Z" fill="#00579F"/>
<path d="M22.15 8.61637C21.7596 8.46151 21.1404 8.29053 20.3748 8.29053C18.4202 8.29053 17.0439 9.33267 17.0354 10.8226C17.0192 11.9219 18.0209 12.5325 18.77 12.899C19.5358 13.2735 19.7961 13.518 19.7961 13.8518C19.7883 14.3646 19.1773 14.6009 18.6075 14.6009C17.8173 14.6009 17.3939 14.4791 16.7505 14.1938L16.4899 14.0715L16.2129 15.7896C16.6771 16.0011 17.5323 16.1887 18.4202 16.1969C20.497 16.1969 21.849 15.1709 21.865 13.5831C21.8729 12.7119 21.344 12.0443 20.2037 11.4988C19.5114 11.1486 19.0875 10.9124 19.0875 10.5541C19.0956 10.2284 19.4461 9.89475 20.2275 9.89475C20.8709 9.87841 21.3437 10.0331 21.7018 10.1878L21.8808 10.2691L22.15 8.61637Z" fill="#00579F"/>
<path d="M24.7809 13.3714C24.9439 12.9317 25.5711 11.23 25.5711 11.23C25.5629 11.2463 25.7338 10.7822 25.8315 10.4972L25.9698 11.1567C25.9698 11.1567 26.3446 12.9887 26.426 13.3714C26.1167 13.3714 25.1718 13.3714 24.7809 13.3714ZM27.224 8.4292H25.6931C25.221 8.4292 24.8623 8.5675 24.6586 9.06422L21.7188 16.0827H23.7955C23.7955 16.0827 24.1374 15.1381 24.2109 14.9346C24.4387 14.9346 26.4589 14.9346 26.752 14.9346C26.8088 15.2033 26.9882 16.0827 26.9882 16.0827H28.8207L27.224 8.4292Z" fill="#00579F"/>
<path d="M11.3435 8.4292L9.40523 13.6482L9.19342 12.5897C8.83507 11.3684 7.7112 10.0414 6.45703 9.38162L8.23244 16.0747H10.3254L13.4364 8.4292H11.3435Z" fill="#00579F"/>
<path d="M7.6056 8.4292H4.42125L4.38867 8.58386C6.87267 9.21906 8.51777 10.7502 9.19367 12.5905L8.50143 9.07263C8.38746 8.58375 8.03723 8.44533 7.6056 8.4292Z" fill="#FAA61A"/>
<mask id="mask0_3728_28410" style="mask-type:alpha" maskUnits="userSpaceOnUse" x="111" y="0" width="36" height="24">
<rect x="111.012" width="35.004" height="24" fill="#016FD0"/>
</mask>
<g mask="url(#mask0_3728_28410)">
<rect x="111.012" width="35.004" height="24" rx="4" fill="#016FD0"/>
<rect x="111.512" y="0.5" width="34.004" height="23" rx="3.5" stroke="#D6D7DC" stroke-opacity="0.2"/>
<path d="M118.418 18.0081V12.807H123.926L124.517 13.5772L125.127 12.807H145.118V17.6494C145.118 17.6494 144.595 18.0029 143.991 18.0081H132.921L132.255 17.1882V18.0081H130.072V16.6085C130.072 16.6085 129.774 16.8039 129.129 16.8039H128.386V18.0081H125.08L124.49 17.2213L123.891 18.0081H118.418Z" fill="#016FD0"/>
<path d="M111.986 8.88701L113.228 5.99182H115.376L116.081 7.61359V5.99182H118.751L119.171 7.16398L119.577 5.99182H131.563V6.58111C131.563 6.58111 132.193 5.99182 133.229 5.99182L137.118 6.00541L137.81 7.60595V5.99182H140.045L140.66 6.9112V5.99182H142.915V11.1929H140.66L140.07 10.2705V11.1929H136.787L136.457 10.373H135.575L135.25 11.1929H133.024C132.133 11.1929 131.563 10.6157 131.563 10.6157V11.1929H128.206L127.54 10.373V11.1929H115.058L114.728 10.373H113.848L113.521 11.1929H111.986V8.88701Z" fill="#016FD0"/>
<path d="M113.667 6.63281L111.992 10.5277H113.083L113.392 9.74774H115.189L115.496 10.5277H116.611L114.937 6.63281H113.667ZM114.287 7.53926L114.835 8.90215H113.738L114.287 7.53926Z" fill="white"/>
<path d="M116.727 10.5268V6.63196L118.276 6.63772L119.178 9.14888L120.058 6.63196H121.595V10.5268H120.621V7.65692L119.589 10.5268H118.735L117.7 7.65692V10.5268H116.727Z" fill="white"/>
<path d="M122.262 10.5269V6.63196H125.439V7.50319H123.246V8.16942H125.388V8.9894H123.246V9.68126H125.439V10.5269H122.262Z" fill="white"/>
<path d="M126.002 6.63281V10.5277H126.976V9.144H127.386L128.553 10.5277H129.743L128.462 9.09275C128.988 9.04838 129.53 8.59708 129.53 7.89642C129.53 7.07679 128.887 6.63281 128.169 6.63281H126.002ZM126.976 7.50404H128.089C128.356 7.50404 128.55 7.7129 128.55 7.91403C128.55 8.17279 128.298 8.32402 128.103 8.32402H126.976V7.50404Z" fill="white"/>
<path d="M130.924 10.5269H129.93V6.63196H130.924V10.5269Z" fill="white"/>
<path d="M133.28 10.5269H133.065C132.027 10.5269 131.396 9.7088 131.396 8.59542C131.396 7.45454 132.02 6.63196 133.331 6.63196H134.407V7.55443H133.292C132.759 7.55443 132.383 7.96984 132.383 8.60503C132.383 9.35933 132.813 9.67613 133.434 9.67613H133.69L133.28 10.5269Z" fill="white"/>
<path d="M135.4 6.63281L133.725 10.5277H134.815L135.124 9.74774H136.921L137.229 10.5277H138.343L136.67 6.63281H135.4ZM136.02 7.53926L136.567 8.90215H135.47L136.02 7.53926Z" fill="white"/>
<path d="M138.455 10.5269V6.63196H139.693L141.274 9.07908V6.63196H142.247V10.5269H141.05L139.429 8.01567V10.5269H138.455Z" fill="white"/>
<path d="M119.084 17.3424V13.4475H122.261V14.3187H120.068V14.985H122.21V15.8049H120.068V16.4968H122.261V17.3424H119.084Z" fill="white"/>
<path d="M134.652 17.3424V13.4475H137.83V14.3187H135.636V14.985H137.768V15.8049H135.636V16.4968H137.83V17.3424H134.652Z" fill="white"/>
<path d="M122.386 17.3424L123.933 15.419L122.35 13.4475H123.576L124.52 14.6663L125.466 13.4475H126.645L125.082 15.3949L126.632 17.3424H125.405L124.489 16.1428L123.596 17.3424H122.386Z" fill="white"/>
<path d="M126.746 13.448V17.3429H127.745V16.1129H128.77C129.638 16.1129 130.295 15.6528 130.295 14.758C130.295 14.0168 129.779 13.448 128.897 13.448H126.746ZM127.745 14.3288H128.825C129.105 14.3288 129.305 14.5006 129.305 14.7773C129.305 15.0372 129.106 15.2257 128.822 15.2257H127.745V14.3288Z" fill="white"/>
<path d="M130.717 13.4475V17.3424H131.691V15.9587H132.101L133.268 17.3424H134.458L133.177 15.9074C133.703 15.8631 134.245 15.4118 134.245 14.7111C134.245 13.8915 133.602 13.4475 132.884 13.4475H130.717ZM131.691 14.3187H132.804C133.071 14.3187 133.265 14.5276 133.265 14.7287C133.265 14.9875 133.013 15.1387 132.818 15.1387H131.691V14.3187Z" fill="white"/>
<path d="M138.282 17.3424V16.4968H140.231C140.519 16.4968 140.644 16.341 140.644 16.1701C140.644 16.0064 140.519 15.8408 140.231 15.8408H139.35C138.585 15.8408 138.158 15.3745 138.158 14.6743C138.158 14.0498 138.549 13.4475 139.686 13.4475H141.582L141.172 14.3239H139.532C139.219 14.3239 139.122 14.4884 139.122 14.6454C139.122 14.8069 139.242 14.985 139.481 14.985H140.404C141.257 14.985 141.627 15.469 141.627 16.1028C141.627 16.7843 141.215 17.3424 140.357 17.3424H138.282Z" fill="white"/>
<path d="M141.856 17.3424V16.4968H143.805C144.093 16.4968 144.218 16.341 144.218 16.1701C144.218 16.0064 144.094 15.8408 143.805 15.8408H142.924C142.159 15.8408 141.732 15.3745 141.732 14.6743C141.732 14.0498 142.123 13.4475 143.26 13.4475H145.118L144.746 14.3239H143.107C142.793 14.3239 142.697 14.4884 142.697 14.6454C142.697 14.8069 142.816 14.985 143.055 14.985H143.978C144.831 14.985 145.201 15.469 145.201 16.1028C145.201 16.7843 144.789 17.3424 143.931 17.3424H141.856Z" fill="white"/>
</g>
<rect x="37.0039" width="35.004" height="24" rx="4" fill="white"/>
<rect x="37.5039" y="0.5" width="34.004" height="23" rx="3.5" stroke="#D6D7DC" stroke-opacity="0.2"/>
<path fill-rule="evenodd" clip-rule="evenodd" d="M54.7552 17.1569C53.5635 18.1852 52.0176 18.806 50.3285 18.806C46.5594 18.806 43.5039 15.7154 43.5039 11.903C43.5039 8.09057 46.5594 5 50.3285 5C52.0176 5 53.5635 5.62075 54.7552 6.64903C55.9469 5.62075 57.4928 5 59.1819 5C62.951 5 66.0065 8.09057 66.0065 11.903C66.0065 15.7154 62.951 18.806 59.1819 18.806C57.4928 18.806 55.9469 18.1852 54.7552 17.1569Z" fill="#ED0006"/>
<path fill-rule="evenodd" clip-rule="evenodd" d="M54.7559 17.1569C56.2232 15.8908 57.1537 14.0068 57.1537 11.903C57.1537 9.79917 56.2232 7.91516 54.7559 6.64903C55.9476 5.62075 57.4934 5 59.1826 5C62.9517 5 66.0072 8.09057 66.0072 11.903C66.0072 15.7154 62.9517 18.806 59.1826 18.806C57.4934 18.806 55.9476 18.1852 54.7559 17.1569Z" fill="#F9A000"/>
<path fill-rule="evenodd" clip-rule="evenodd" d="M54.7552 6.64905C56.2226 7.91518 57.153 9.79917 57.153 11.903C57.153 14.0068 56.2226 15.8908 54.7552 17.1569C53.2879 15.8908 52.3574 14.0068 52.3574 11.903C52.3574 9.79917 53.2879 7.91518 54.7552 6.64905Z" fill="#FF5E00"/>
<rect x="74.0078" width="35.004" height="24" rx="4" fill="white"/>
<rect x="74.5078" y="0.5" width="34.004" height="23" rx="3.5" stroke="#D6D7DC" stroke-opacity="0.2"/>
<path d="M94.1042 12.127C94.1042 15.9394 91.0487 19.03 87.2796 19.03C83.5105 19.03 80.4551 15.9394 80.4551 12.127C80.4551 8.31457 83.5105 5.224 87.2796 5.224C91.0487 5.224 94.1042 8.31457 94.1042 12.127Z" fill="#ED0006"/>
<path d="M102.958 12.127C102.958 15.9394 99.9023 19.03 96.1332 19.03C92.3641 19.03 89.3086 15.9394 89.3086 12.127C89.3086 8.31457 92.3641 5.224 96.1332 5.224C99.9023 5.224 102.958 8.31457 102.958 12.127Z" fill="#0099DF"/>
<path fill-rule="evenodd" clip-rule="evenodd" d="M91.7064 6.87305C93.1737 8.13918 94.1042 10.0232 94.1042 12.127C94.1042 14.2308 93.1737 16.1148 91.7064 17.3809C90.239 16.1148 89.3086 14.2308 89.3086 12.127C89.3086 10.0232 90.239 8.13918 91.7064 6.87305Z" fill="#6C6BBD"/>
</svg>
