<svg width="161" height="50" viewBox="0 0 161 50" fill="none" xmlns="http://www.w3.org/2000/svg">
<rect width="161" height="50" rx="5" fill="white"/>
<rect x="8" y="13" width="35.004" height="24" rx="4" fill="white"/>
<rect x="8.5" y="13.5" width="34.004" height="23" rx="3.5" stroke="#D6D7DC" stroke-opacity="0.2"/>
<path d="M22.9753 29.0828H20.9961L22.234 21.4292H24.2131L22.9753 29.0828Z" fill="#00579F"/>
<path d="M30.15 21.6164C29.7596 21.4615 29.1404 21.2905 28.3748 21.2905C26.4202 21.2905 25.0439 22.3327 25.0354 23.8226C25.0192 24.9219 26.0209 25.5325 26.77 25.899C27.5358 26.2735 27.7961 26.518 27.7961 26.8518C27.7883 27.3646 27.1773 27.6009 26.6075 27.6009C25.8173 27.6009 25.3939 27.4791 24.7505 27.1938L24.4899 27.0715L24.2129 28.7896C24.6771 29.0011 25.5323 29.1887 26.4202 29.1969C28.497 29.1969 29.849 28.1709 29.865 26.5831C29.8729 25.7119 29.344 25.0443 28.2037 24.4988C27.5114 24.1486 27.0875 23.9124 27.0875 23.5541C27.0956 23.2284 27.4461 22.8947 28.2275 22.8947C28.8709 22.8784 29.3437 23.0331 29.7018 23.1878L29.8808 23.2691L30.15 21.6164Z" fill="#00579F"/>
<path d="M32.7809 26.3714C32.9439 25.9317 33.5711 24.23 33.5711 24.23C33.5629 24.2463 33.7338 23.7822 33.8315 23.4972L33.9698 24.1567C33.9698 24.1567 34.3446 25.9887 34.426 26.3714C34.1167 26.3714 33.1718 26.3714 32.7809 26.3714ZM35.224 21.4292H33.6931C33.221 21.4292 32.8623 21.5675 32.6586 22.0642L29.7188 29.0827H31.7955C31.7955 29.0827 32.1374 28.1381 32.2109 27.9346C32.4387 27.9346 34.4589 27.9346 34.752 27.9346C34.8088 28.2033 34.9882 29.0827 34.9882 29.0827H36.8207L35.224 21.4292Z" fill="#00579F"/>
<path d="M19.3435 21.4292L17.4052 26.6482L17.1934 25.5897C16.8351 24.3684 15.7112 23.0414 14.457 22.3816L16.2324 29.0747H18.3254L21.4364 21.4292H19.3435Z" fill="#00579F"/>
<path d="M15.6056 21.4292H12.4212L12.3887 21.5839C14.8727 22.2191 16.5178 23.7502 17.1937 25.5905L16.5014 22.0726C16.3875 21.5838 16.0372 21.4453 15.6056 21.4292Z" fill="#FAA61A"/>
<mask id="mask0_3728_28352" style="mask-type:alpha" maskUnits="userSpaceOnUse" x="119" y="13" width="36" height="24">
<rect x="119.012" y="13" width="35.004" height="24" fill="#016FD0"/>
</mask>
<g mask="url(#mask0_3728_28352)">
<rect x="119.012" y="13" width="35.004" height="24" rx="4" fill="#016FD0"/>
<rect x="119.512" y="13.5" width="34.004" height="23" rx="3.5" stroke="#D6D7DC" stroke-opacity="0.2"/>
<path d="M126.418 31.0081V25.807H131.926L132.517 26.5772L133.127 25.807H153.118V30.6494C153.118 30.6494 152.595 31.0029 151.991 31.0081H140.921L140.255 30.1882V31.0081H138.072V29.6085C138.072 29.6085 137.774 29.8039 137.129 29.8039H136.386V31.0081H133.08L132.49 30.2213L131.891 31.0081H126.418Z" fill="#016FD0"/>
<path d="M119.986 21.887L121.228 18.9918H123.376L124.081 20.6136V18.9918H126.751L127.171 20.164L127.577 18.9918H139.563V19.5811C139.563 19.5811 140.193 18.9918 141.229 18.9918L145.118 19.0054L145.81 20.6059V18.9918H148.045L148.66 19.9112V18.9918H150.915V24.1929H148.66L148.07 23.2705V24.1929H144.787L144.457 23.373H143.575L143.25 24.1929H141.024C140.133 24.1929 139.563 23.6157 139.563 23.6157V24.1929H136.206L135.54 23.373V24.1929H123.058L122.728 23.373H121.848L121.521 24.1929H119.986V21.887Z" fill="#016FD0"/>
<path d="M121.667 19.6328L119.992 23.5277H121.083L121.392 22.7477H123.189L123.496 23.5277H124.611L122.937 19.6328H121.667ZM122.287 20.5393L122.835 21.9022H121.738L122.287 20.5393Z" fill="white"/>
<path d="M124.727 23.5268V19.632L126.276 19.6377L127.178 22.1489L128.058 19.632H129.595V23.5268H128.621V20.6569L127.589 23.5268H126.735L125.7 20.6569V23.5268H124.727Z" fill="white"/>
<path d="M130.262 23.5269V19.632H133.439V20.5032H131.246V21.1694H133.388V21.9894H131.246V22.6813H133.439V23.5269H130.262Z" fill="white"/>
<path d="M134.002 19.6328V23.5277H134.976V22.144H135.386L136.553 23.5277H137.743L136.462 22.0928C136.988 22.0484 137.53 21.5971 137.53 20.8964C137.53 20.0768 136.887 19.6328 136.169 19.6328H134.002ZM134.976 20.504H136.089C136.356 20.504 136.55 20.7129 136.55 20.914C136.55 21.1728 136.298 21.324 136.103 21.324H134.976V20.504Z" fill="white"/>
<path d="M138.924 23.5269H137.93V19.632H138.924V23.5269Z" fill="white"/>
<path d="M141.28 23.5269H141.065C140.027 23.5269 139.396 22.7088 139.396 21.5954C139.396 20.4545 140.02 19.632 141.331 19.632H142.407V20.5544H141.292C140.759 20.5544 140.383 20.9698 140.383 21.605C140.383 22.3593 140.813 22.6761 141.434 22.6761H141.69L141.28 23.5269Z" fill="white"/>
<path d="M143.4 19.6328L141.725 23.5277H142.815L143.124 22.7477H144.921L145.229 23.5277H146.343L144.67 19.6328H143.4ZM144.02 20.5393L144.567 21.9022H143.47L144.02 20.5393Z" fill="white"/>
<path d="M146.455 23.5269V19.632H147.693L149.274 22.0791V19.632H150.247V23.5269H149.05L147.429 21.0157V23.5269H146.455Z" fill="white"/>
<path d="M127.084 30.3424V26.4475H130.261V27.3187H128.068V27.985H130.21V28.8049H128.068V29.4968H130.261V30.3424H127.084Z" fill="white"/>
<path d="M142.652 30.3424V26.4475H145.83V27.3187H143.636V27.985H145.768V28.8049H143.636V29.4968H145.83V30.3424H142.652Z" fill="white"/>
<path d="M130.386 30.3424L131.933 28.419L130.35 26.4475H131.576L132.52 27.6663L133.466 26.4475H134.645L133.082 28.3949L134.632 30.3424H133.405L132.489 29.1428L131.596 30.3424H130.386Z" fill="white"/>
<path d="M134.746 26.448V30.3429H135.745V29.1129H136.77C137.638 29.1129 138.295 28.6528 138.295 27.758C138.295 27.0168 137.779 26.448 136.897 26.448H134.746ZM135.745 27.3288H136.825C137.105 27.3288 137.305 27.5006 137.305 27.7773C137.305 28.0372 137.106 28.2257 136.822 28.2257H135.745V27.3288Z" fill="white"/>
<path d="M138.717 26.4475V30.3424H139.691V28.9587H140.101L141.268 30.3424H142.458L141.177 28.9074C141.703 28.8631 142.245 28.4118 142.245 27.7111C142.245 26.8915 141.602 26.4475 140.884 26.4475H138.717ZM139.691 27.3187H140.804C141.071 27.3187 141.265 27.5276 141.265 27.7287C141.265 27.9875 141.013 28.1387 140.818 28.1387H139.691V27.3187Z" fill="white"/>
<path d="M146.282 30.3424V29.4968H148.231C148.519 29.4968 148.644 29.341 148.644 29.1701C148.644 29.0064 148.519 28.8408 148.231 28.8408H147.35C146.585 28.8408 146.158 28.3745 146.158 27.6743C146.158 27.0498 146.549 26.4475 147.686 26.4475H149.582L149.172 27.3239H147.532C147.219 27.3239 147.122 27.4884 147.122 27.6454C147.122 27.8069 147.242 27.985 147.481 27.985H148.404C149.257 27.985 149.627 28.469 149.627 29.1028C149.627 29.7843 149.215 30.3424 148.357 30.3424H146.282Z" fill="white"/>
<path d="M149.856 30.3424V29.4968H151.805C152.093 29.4968 152.218 29.341 152.218 29.1701C152.218 29.0064 152.094 28.8408 151.805 28.8408H150.924C150.159 28.8408 149.732 28.3745 149.732 27.6743C149.732 27.0498 150.123 26.4475 151.26 26.4475H153.118L152.746 27.3239H151.107C150.793 27.3239 150.697 27.4884 150.697 27.6454C150.697 27.8069 150.816 27.985 151.055 27.985H151.978C152.831 27.985 153.201 28.469 153.201 29.1028C153.201 29.7843 152.789 30.3424 151.931 30.3424H149.856Z" fill="white"/>
</g>
<rect x="45.0039" y="13" width="35.004" height="24" rx="4" fill="white"/>
<rect x="45.5039" y="13.5" width="34.004" height="23" rx="3.5" stroke="#D6D7DC" stroke-opacity="0.2"/>
<path fill-rule="evenodd" clip-rule="evenodd" d="M62.7552 30.1569C61.5635 31.1852 60.0176 31.806 58.3285 31.806C54.5594 31.806 51.5039 28.7154 51.5039 24.903C51.5039 21.0906 54.5594 18 58.3285 18C60.0176 18 61.5635 18.6208 62.7552 19.649C63.9469 18.6208 65.4928 18 67.1819 18C70.951 18 74.0065 21.0906 74.0065 24.903C74.0065 28.7154 70.951 31.806 67.1819 31.806C65.4928 31.806 63.9469 31.1852 62.7552 30.1569Z" fill="#ED0006"/>
<path fill-rule="evenodd" clip-rule="evenodd" d="M62.7559 30.1569C64.2232 28.8908 65.1537 27.0068 65.1537 24.903C65.1537 22.7992 64.2232 20.9152 62.7559 19.649C63.9476 18.6208 65.4934 18 67.1826 18C70.9517 18 74.0072 21.0906 74.0072 24.903C74.0072 28.7154 70.9517 31.806 67.1826 31.806C65.4934 31.806 63.9476 31.1852 62.7559 30.1569Z" fill="#F9A000"/>
<path fill-rule="evenodd" clip-rule="evenodd" d="M62.7552 19.649C64.2226 20.9152 65.153 22.7992 65.153 24.903C65.153 27.0068 64.2226 28.8908 62.7552 30.1569C61.2879 28.8908 60.3574 27.0068 60.3574 24.903C60.3574 22.7992 61.2879 20.9152 62.7552 19.649Z" fill="#FF5E00"/>
<rect x="82.0078" y="13" width="35.004" height="24" rx="4" fill="white"/>
<rect x="82.5078" y="13.5" width="34.004" height="23" rx="3.5" stroke="#D6D7DC" stroke-opacity="0.2"/>
<path d="M102.104 25.127C102.104 28.9394 99.0487 32.03 95.2796 32.03C91.5105 32.03 88.4551 28.9394 88.4551 25.127C88.4551 21.3146 91.5105 18.224 95.2796 18.224C99.0487 18.224 102.104 21.3146 102.104 25.127Z" fill="#ED0006"/>
<path d="M110.958 25.127C110.958 28.9394 107.902 32.03 104.133 32.03C100.364 32.03 97.3086 28.9394 97.3086 25.127C97.3086 21.3146 100.364 18.224 104.133 18.224C107.902 18.224 110.958 21.3146 110.958 25.127Z" fill="#0099DF"/>
<path fill-rule="evenodd" clip-rule="evenodd" d="M99.7064 19.873C101.174 21.1392 102.104 23.0232 102.104 25.127C102.104 27.2308 101.174 29.1148 99.7064 30.3809C98.239 29.1148 97.3086 27.2308 97.3086 25.127C97.3086 23.0232 98.239 21.1392 99.7064 19.873Z" fill="#6C6BBD"/>
</svg>
